<?xml version="1.0" encoding="utf-8"?>
<!-- Generator: Adobe Illustrator 16.0.0, SVG Export Plug-In . SVG Version: 6.00 Build 0)  -->
<!DOCTYPE svg PUBLIC "-//W3C//DTD SVG 1.1//EN" "http://www.w3.org/Graphics/SVG/1.1/DTD/svg11.dtd">
<svg version="1.1" id="Layer_1" xmlns="http://www.w3.org/2000/svg" xmlns:xlink="http://www.w3.org/1999/xlink" x="0px" y="0px"
	 width="600px" height="300px" viewBox="0 0 600 300" enable-background="new 0 0 600 300" xml:space="preserve">
<g>
	<path fill="#F4B41A" d="M77.45,102.428c0,0.053,0.025,0.078,0.08,0.078c1.558,1.554,2.335,3.468,2.335,5.718
		c0,2.199-0.794,4.1-2.375,5.68c-1.584,1.581-3.479,2.373-5.682,2.373c-2.253,0-4.159-0.804-5.718-2.412h-0.08
		c-4.619-4.615-10.23-6.93-16.834-6.93c-6.604,0-12.241,2.328-16.914,6.969c-4.67,4.641-7.007,10.264-7.007,16.871
		c0,6.604,2.337,12.24,7.007,16.921c4.673,4.667,10.309,6.999,16.914,6.999c6.551,0,12.165-2.309,16.834-6.923
		c0.055-0.051,0.108-0.101,0.163-0.152c1.556-1.568,3.462-2.347,5.719-2.347c2.253,0,4.189,0.804,5.797,2.384
		c1.611,1.583,2.417,3.494,2.417,5.751s-0.807,4.195-2.417,5.803c-0.054,0.049-0.108,0.113-0.161,0.164
		c-7.785,7.777-17.236,11.68-28.353,11.68c-11.115,0-20.591-3.928-28.431-11.77c-7.842-7.828-11.76-17.315-11.76-28.422
		c0-11.119,3.917-20.593,11.76-28.435c7.839-7.841,17.316-11.762,28.431-11.762c11.117,0,20.567,3.896,28.353,11.681L77.45,102.428z
		"/>
	<path fill="#F4B41A" d="M159.687,102.428c7.839,7.842,11.76,17.316,11.76,28.435c0,11.106-3.92,20.594-11.76,28.422
		c-7.842,7.842-17.319,11.77-28.435,11.77c-11.117,0-20.592-3.928-28.431-11.77c-7.842-7.828-11.76-17.315-11.76-28.422
		c0-11.119,3.917-20.593,11.76-28.435c7.839-7.841,17.314-11.762,28.431-11.762C142.368,90.667,151.844,94.587,159.687,102.428z
		 M131.252,106.936c-6.604,0-12.241,2.328-16.914,6.969c-4.67,4.641-7.006,10.264-7.006,16.871c0,6.604,2.336,12.24,7.006,16.921
		c4.673,4.667,10.31,6.999,16.914,6.999c6.606,0,12.229-2.332,16.876-6.999c4.644-4.681,6.965-10.316,6.965-16.921
		c0-6.605-2.321-12.229-6.965-16.871C143.481,109.264,137.858,106.936,131.252,106.936z"/>
	<path fill="#F4B41A" d="M268.257,131.26c-0.102,10.95-4.029,20.298-11.756,28.025c-7.842,7.842-17.315,11.77-28.434,11.77
		c-11.119,0-20.593-3.928-28.432-11.77c-7.841-7.828-11.759-17.315-11.759-28.422c0-11.119,3.917-20.593,11.759-28.435
		c7.839-7.841,17.313-11.762,28.432-11.762c8.964,0,16.882,2.583,23.767,7.733V74.722c0-2.257,0.803-4.196,2.41-5.802
		s3.544-2.416,5.801-2.416c2.257,0,4.181,0.809,5.802,2.416c1.606,1.606,2.41,3.545,2.41,5.802L268.257,131.26L268.257,131.26z
		 M251.91,132.548c-0.051-0.486-0.076-0.969-0.076-1.455v-3.06c-0.599-5.361-2.882-10.036-6.847-14.007
		c-4.679-4.674-10.316-7.006-16.92-7.006c-6.605,0-12.228,2.332-16.87,7.006c-4.655,4.673-6.974,10.309-6.974,16.914
		s2.32,12.229,6.974,16.869c4.641,4.654,10.265,6.976,16.87,6.976c6.604,0,12.241-2.332,16.92-7.016
		C249.271,143.538,251.592,138.463,251.91,132.548z"/>
	<path fill="#F4B41A" d="M292.912,82.614c-2.258,0-4.189-0.803-5.802-2.421c-1.606-1.606-2.416-3.54-2.416-5.797
		c0-2.25,0.81-4.189,2.416-5.796c1.614-1.618,3.545-2.421,5.802-2.421c2.256,0,4.189,0.804,5.801,2.421
		c1.606,1.607,2.417,3.545,2.417,5.796c0,2.256-0.811,4.189-2.417,5.797C297.1,81.812,295.168,82.614,292.912,82.614z
		 M292.912,171.055c-2.258,0-4.189-0.803-5.802-2.422c-1.606-1.607-2.416-3.545-2.416-5.801V98.401c0-2.258,0.81-4.189,2.416-5.8
		c1.614-1.608,3.545-2.417,5.802-2.417c2.256,0,4.189,0.809,5.801,2.417c1.606,1.612,2.417,3.543,2.417,5.8v64.431
		c0,2.256-0.811,4.193-2.417,5.801C297.1,170.252,295.168,171.055,292.912,171.055z"/>
	<path fill="#F4B41A" d="M357.991,90.508c11.33,0.645,20.645,4.616,27.951,11.921c7.734,7.728,11.646,17.074,11.756,28.028v31.085
		c0,3.125-0.803,5.482-2.416,7.09c-1.607,1.619-3.545,2.422-5.797,2.422c-2.258,0-4.189-0.803-5.801-2.422
		c-1.615-1.607-2.418-3.914-2.418-6.924v-31.086c0-0.484,0.025-0.969,0.082-1.454c-0.324-5.902-2.631-10.977-6.928-15.224
		c-4.674-4.667-10.311-7.007-16.914-7.007h-0.32c-6.604,0-12.246,2.34-16.912,7.007c-4.297,4.247-6.605,9.322-6.932,15.224
		c0.051,0.485,0.082,0.97,0.082,1.454v31.086c0,3.01-0.809,5.316-2.416,6.924c-1.613,1.619-3.543,2.422-5.801,2.422
		s-4.189-0.803-5.803-2.422c-1.607-1.607-2.414-3.967-2.414-7.09v-31.085c0.107-10.954,4.027-20.3,11.762-28.028
		c7.299-7.306,16.621-11.277,27.949-11.921H357.991z"/>
	<path fill="#F4B41A" d="M477.843,163.314c-6.873,5.164-14.816,7.74-23.838,7.74c-11.117,0-20.592-3.928-28.434-11.77
		c-7.842-7.828-11.764-17.315-11.764-28.422c0-11.119,3.922-20.593,11.764-28.435c7.84-7.841,17.316-11.762,28.434-11.762
		c11.113,0,20.586,3.92,28.428,11.762c7.844,7.842,11.764,17.292,11.764,28.347h0.076v32.055c0,0.434-0.025,0.867-0.076,1.303
		c-0.268,10.672-4.188,19.801-11.764,27.375c-7.842,7.84-17.314,11.756-28.428,11.756h-0.324c-2.258,0-4.189-0.803-5.803-2.41
		c-1.605-1.607-2.416-3.545-2.416-5.803c0-2.256,0.811-4.182,2.416-5.799c1.613-1.607,3.545-2.412,5.803-2.412
		c0.377,0,0.752,0.027,1.127,0.078c6.23-0.219,11.598-2.551,16.113-7.002C475.478,175.287,477.792,169.768,477.843,163.314z
		 M454.005,106.936c-6.604,0-12.246,2.328-16.914,6.969c-4.672,4.641-7.014,10.264-7.014,16.871c0,6.604,2.342,12.24,7.014,16.921
		c4.668,4.667,10.311,6.999,16.914,6.999c6.607,0,12.229-2.332,16.871-6.999c4.646-4.681,6.967-10.316,6.967-16.921
		c0-6.605-2.32-12.229-6.967-16.871C466.233,109.264,460.612,106.936,454.005,106.936z"/>
	<path fill="#F4B41A" d="M579.251,102.428c7.842,7.842,11.764,17.316,11.764,28.435c0,11.106-3.922,20.594-11.764,28.422
		c-7.842,7.842-17.316,11.77-28.428,11.77c-11.121,0-20.594-3.928-28.436-11.77c-7.842-7.828-11.762-17.315-11.762-28.422
		c0-11.119,3.92-20.593,11.762-28.435c7.84-7.841,17.314-11.762,28.436-11.762C561.935,90.667,571.409,94.587,579.251,102.428z
		 M550.823,106.936c-6.605,0-12.248,2.328-16.914,6.969c-4.674,4.641-7.014,10.264-7.014,16.871c0,6.604,2.34,12.24,7.014,16.921
		c4.666,4.667,10.309,6.999,16.914,6.999s12.229-2.332,16.869-6.999c4.646-4.681,6.969-10.316,6.969-16.921
		c0-6.605-2.322-12.229-6.969-16.871C563.052,109.264,557.429,106.936,550.823,106.936z"/>
</g>
<g>
	<path fill="#262626" d="M38.231,218.004c0.152-0.137,0.368-0.318,0.647-0.547s0.639-0.504,1.079-0.824
		c0.338-0.221,0.584-0.432,0.736-0.635s0.229-0.416,0.229-0.637c0-0.797-0.004-1.305-0.013-1.523
		c-0.009-0.221-0.013-0.391-0.013-0.51c0-1.625,0.042-2.896,0.127-3.811c0.084-0.916,0.194-1.482,0.33-1.703l-0.051-0.764
		l-0.152-0.178c0-0.186,0.004-0.352,0.013-0.494c0.008-0.145,0.013-0.268,0.013-0.369c0-0.932-0.411-1.525-1.231-1.779
		c-0.821-0.254-1.231-0.771-1.231-1.551c0-0.236,0.237-0.527,0.711-0.875c0.474-0.346,1.168-0.766,2.082-1.256
		c0.118-0.828,0.245-1.732,0.381-2.715c0.135-0.98,0.296-2.063,0.482-3.246c-0.068-0.221-0.119-0.402-0.152-0.547
		c-0.034-0.143-0.051-0.273-0.051-0.393c0-0.592,0.067-1.133,0.203-1.623c0.135-0.49,0.321-0.955,0.559-1.396
		c0.152-0.236,0.347-0.494,0.584-0.773c0.237-0.279,0.524-0.588,0.863-0.926c0.271-0.254,0.474-0.479,0.609-0.672
		c0.135-0.195,0.203-0.352,0.203-0.469c0-0.137-0.055-0.246-0.165-0.33c-0.11-0.086-0.267-0.127-0.47-0.127
		c-0.626,0-1.549,0.199-2.768,0.596c-1.219,0.398-2.133,0.598-2.742,0.598c-0.203,0-0.352-0.025-0.444-0.076
		c-0.093-0.051-0.14-0.137-0.14-0.254c0-0.34,0.017-0.635,0.051-0.889c0.034-0.254,0.076-0.432,0.127-0.533
		c0.288-0.221,0.512-0.432,0.673-0.635c0.161-0.203,0.241-0.406,0.241-0.609c0-0.086,0.089-0.195,0.267-0.33
		c0.178-0.137,0.461-0.254,0.851-0.355c1.557-0.441,2.746-0.779,3.567-1.016c0.821-0.238,1.291-0.373,1.409-0.406
		c0.948-0.238,1.854-0.41,2.717-0.521c0.863-0.109,1.667-0.164,2.412-0.164c0.084,0,0.254,0.021,0.508,0.063
		c0.254,0.043,0.423,0.047,0.508,0.014c0.338-0.051,0.694-0.111,1.066-0.178c0.102,0,0.397,0.047,0.889,0.139
		c0.491,0.094,1.176,0.225,2.057,0.395c0.186-0.035,0.389-0.076,0.609-0.127c0.491,0,0.901,0.076,1.231,0.229
		s0.588,0.363,0.774,0.633c0.237,0.051,0.465,0.076,0.686,0.076c0.44,0,0.842,0.123,1.206,0.369
		c0.364,0.244,0.681,0.596,0.952,1.053c0.237,0.439,0.423,0.875,0.559,1.307c0.135,0.432,0.203,0.875,0.203,1.332
		c0,0.896-0.19,1.746-0.571,2.551c-0.381,0.803-0.952,1.551-1.714,2.244c-0.085,0.051-0.495,0.352-1.231,0.902
		c-0.736,0.549-1.807,1.314-3.212,2.295c-0.152,0.102-0.33,0.246-0.533,0.432s-0.449,0.381-0.736,0.584
		c-1.388,0.828-2.726,1.623-4.012,2.385c-1.083,0.592-1.904,1.092-2.463,1.496c-0.559,0.406-0.838,0.695-0.838,0.863
		c0,0.34,0.144,0.641,0.432,0.902c0.288,0.264,0.728,0.496,1.32,0.699c0.863,0.305,1.836,0.652,2.92,1.041
		c1.083,0.391,2.243,0.855,3.479,1.398c0.118,0.033,0.267,0.102,0.444,0.203s0.376,0.211,0.597,0.33
		c1.456,0.543,2.535,1.207,3.237,1.994c0.702,0.789,1.054,1.699,1.054,2.732c0,1.508-1.358,2.938-4.075,4.293
		s-6.784,2.643-12.2,3.863c-0.085,0.236-0.182,0.473-0.292,0.711c-0.11,0.236-0.208,0.465-0.292,0.686
		c-0.119,0.186-0.288,0.334-0.508,0.443c-0.22,0.111-0.474,0.166-0.762,0.166c-0.322,0-0.576-0.115-0.762-0.344
		c-0.187-0.229-0.313-0.588-0.381-1.078c-0.136-0.119-0.246-0.17-0.33-0.152l-1.447,0.381c-0.187-0.102-0.36-0.191-0.521-0.268
		c-0.161-0.076-0.326-0.156-0.495-0.24c-0.169-0.102-0.305-0.225-0.406-0.369c-0.102-0.143-0.152-0.301-0.152-0.469
		c0-0.152,0.055-0.275,0.165-0.369C37.846,218.254,38.011,218.139,38.231,218.004z M46.026,205.959
		c-0.271,0-0.504,0.232-0.698,0.699c-0.195,0.465-0.352,1.156-0.47,2.07c-0.068,0.848-0.136,1.699-0.203,2.555
		c-0.068,0.855-0.136,1.707-0.203,2.555c-0.102,0.424-0.187,0.873-0.254,1.348l0.051,0.254l0.203,0.102
		c0.677-0.188,1.43-0.381,2.26-0.584c0.575,0,0.918-0.055,1.028-0.166c0.11-0.109,1.477-0.75,4.101-1.92
		c1.117-0.473,1.955-0.918,2.514-1.334c0.559-0.414,0.838-0.775,0.838-1.08c0-0.186-0.076-0.363-0.229-0.533
		s-0.381-0.348-0.686-0.533c-0.796-0.508-1.676-0.971-2.641-1.385c-0.965-0.416-2.023-0.793-3.174-1.133
		c-0.152-0.051-0.326-0.105-0.521-0.164c-0.195-0.059-0.411-0.123-0.647-0.191c-0.373-0.168-0.656-0.305-0.851-0.406
		C46.25,206.01,46.111,205.959,46.026,205.959z M50.952,186.926c-0.644,0-1.164,0.047-1.562,0.139
		c-0.398,0.094-0.682,0.242-0.851,0.445c-0.136,0.135-0.275,0.396-0.419,0.785c-0.144,0.389-0.301,0.922-0.47,1.6
		c-0.068,0.371-0.114,0.785-0.14,1.242s-0.03,0.955-0.013,1.496c-0.187,0.439-0.381,0.813-0.584,1.117l0.127,0.66
		c-0.203,0.846-0.347,1.521-0.432,2.029c-0.085,0.506-0.127,0.846-0.127,1.014c0,0.254,0.051,0.432,0.152,0.533
		s0.245,0.152,0.432,0.152c0.169,0,0.571-0.186,1.206-0.559c0.635-0.371,1.511-0.93,2.628-1.674
		c1.235-0.813,2.179-1.434,2.831-1.865c0.651-0.432,1.028-0.672,1.13-0.723c0.22-0.271,0.436-0.537,0.647-0.799
		c0.211-0.262,0.419-0.52,0.622-0.773c0.288-0.355,0.499-0.672,0.635-0.951c0.135-0.279,0.203-0.529,0.203-0.75
		c0-0.404-0.127-0.77-0.381-1.09c-0.254-0.322-0.635-0.6-1.143-0.838c-0.169-0.066-0.47-0.168-0.901-0.303
		c-0.432-0.137-0.986-0.271-1.663-0.406c-0.559-0.152-0.999-0.271-1.32-0.355C51.24,186.967,51.037,186.926,50.952,186.926z"/>
	<path fill="#262626" d="M60.397,210.666c0.271-0.355,0.542-0.729,0.813-1.117c1.235-1.016,2.247-1.994,3.034-2.934
		s1.358-1.814,1.714-2.627l-0.254-1.219c0.22-0.424,0.766-0.924,1.638-1.498c0.872-0.576,1.578-0.863,2.12-0.863
		c0.575,0,1.062,0.168,1.46,0.508c0.397,0.338,0.783,0.693,1.155,1.066c0.186,0.117,0.321,0.211,0.406,0.279
		c0.677,0.508,1.185,1.209,1.523,2.107c0.338,0.896,0.508,1.988,0.508,3.275c0,0.676-0.263,1.646-0.787,2.906
		c-0.525,1.262-0.787,2.213-0.787,2.857c0,0.084,0.029,0.152,0.089,0.203c0.059,0.051,0.14,0.076,0.241,0.076
		c0.22,0,0.482-0.098,0.787-0.293c0.305-0.193,0.635-0.461,0.99-0.799c0.897-0.881,1.438-1.367,1.625-1.461
		c0.186-0.092,0.415-0.25,0.686-0.469c0.135,0.338,0.296,0.701,0.482,1.092c0.186,0.389,0.364,0.803,0.533,1.244
		c-0.152,0.135-0.326,0.295-0.521,0.482c-0.195,0.186-0.428,0.396-0.698,0.635c-0.576,0.422-1.325,0.936-2.247,1.535
		c-0.923,0.602-2.027,1.291-3.313,2.07c-0.339,0.219-0.728,0.396-1.168,0.533c-0.711,0-1.244-0.105-1.6-0.318
		c-0.355-0.211-0.533-0.555-0.533-1.027c0-0.188,0.038-0.402,0.114-0.648c0.076-0.244,0.182-0.512,0.317-0.799
		c0.102-0.221,0.211-0.445,0.33-0.674c0.118-0.229,0.22-0.461,0.305-0.697c0.372-1.066,0.656-2.057,0.851-2.971
		c0.194-0.914,0.292-1.736,0.292-2.463c0-0.898-0.14-1.584-0.419-2.057c-0.279-0.475-0.698-0.746-1.257-0.813
		c-0.373,0.203-0.779,0.49-1.219,0.863c-0.44,0.371-0.889,0.838-1.346,1.396c-0.491,0.609-0.931,1.107-1.32,1.498
		c-0.39,0.389-0.711,0.65-0.965,0.787c-0.152,0.254-0.398,0.541-0.736,0.863c-0.339,0.32-0.787,0.668-1.346,1.041
		c-0.034,0.066-0.085,0.168-0.152,0.305c-0.068,0.135-0.178,0.287-0.33,0.457c-0.135-0.391-0.288-0.775-0.457-1.156
		C60.787,211.465,60.601,211.072,60.397,210.666z"/>
	<path fill="#262626" d="M77.333,210.666l0.152-0.178l0.076-0.254c0.457-0.627,1.261-1.443,2.412-2.451
		c1.151-1.006,1.946-1.824,2.387-2.449c0.169-0.271,0.364-0.467,0.584-0.584c0.22-0.119,0.44-0.178,0.66-0.178
		c0.592,0,1.092,0.148,1.498,0.443c0.406,0.297,0.677,0.74,0.813,1.334c0.118,0.523,0.229,1.053,0.33,1.586s0.186,1.07,0.254,1.613
		c0.118,0.338,0.262,0.85,0.432,1.535c0.169,0.686,0.296,1.08,0.381,1.182c0.084,0.168,0.211,0.291,0.381,0.367
		c0.169,0.076,0.381,0.115,0.635,0.115c0.305,0,0.618-0.055,0.939-0.166c0.321-0.109,0.651-0.301,0.99-0.57
		c0.254-0.221,0.521-0.445,0.8-0.674s0.554-0.453,0.825-0.672l1.016,2.336c-0.271,0.27-0.631,0.58-1.079,0.926
		c-0.449,0.348-0.986,0.75-1.612,1.207c-0.694,0.508-1.287,0.885-1.777,1.129c-0.491,0.246-0.863,0.369-1.117,0.369
		c-1.541,0-2.539-0.178-2.996-0.533s-0.965-1.346-1.523-2.971c-0.068-0.137-0.169-0.297-0.305-0.482
		c-0.136-0.188-0.288-0.406-0.457-0.66c-0.203-0.391-0.381-0.682-0.533-0.877c-0.152-0.193-0.279-0.291-0.381-0.291
		c-0.271,0-0.635,0.182-1.092,0.545c-0.457,0.365-1.016,0.91-1.676,1.639c-0.085-0.221-0.19-0.482-0.317-0.787
		s-0.258-0.66-0.394-1.066c-0.034-0.102-0.076-0.195-0.127-0.279C77.46,210.783,77.401,210.717,77.333,210.666z M87.946,190.633
		c0.423,0,0.732,0.084,0.927,0.254c0.194,0.168,0.292,0.414,0.292,0.736c-0.102,0.473-0.187,0.871-0.254,1.193
		c-0.169,0.609-0.317,1.107-0.444,1.498c-0.127,0.389-0.225,0.668-0.292,0.838c-0.152,0.371-0.36,0.697-0.622,0.977
		c-0.263,0.279-0.58,0.529-0.952,0.75c-0.39,0.27-0.715,0.461-0.978,0.57c-0.263,0.111-0.444,0.156-0.546,0.141
		c-0.288-0.035-0.563-0.064-0.825-0.09c-0.263-0.025-0.521-0.037-0.774-0.037c-0.22-0.119-0.394-0.348-0.521-0.686
		c-0.127-0.34-0.19-0.797-0.19-1.371c0-0.508,0.309-1.146,0.927-1.918c0.618-0.77,1.164-1.18,1.638-1.23
		c0.288-0.355,0.626-0.762,1.016-1.219c0.169-0.119,0.389-0.217,0.66-0.293C87.277,190.67,87.591,190.633,87.946,190.633z"/>
	<path fill="#262626" d="M91.856,210.666c0.068-0.119,0.157-0.25,0.267-0.395c0.11-0.143,0.241-0.316,0.394-0.52
		c0.169-0.137,0.389-0.33,0.66-0.584c0.271-0.254,0.575-0.551,0.914-0.889c0.305-0.34,0.677-0.758,1.117-1.258
		c0.44-0.498,0.973-1.104,1.6-1.814c0.271-0.289,0.609-0.656,1.016-1.105c0.406-0.447,0.889-0.986,1.447-1.611
		c0.474-0.559,0.981-0.975,1.523-1.244c0.542-0.271,1.117-0.406,1.727-0.406s1.058,0.189,1.346,0.57
		c0.288,0.381,0.432,0.936,0.432,1.664c0,0.389-0.144,1.133-0.432,2.234c-0.288,1.1-0.736,2.555-1.346,4.367
		c-0.152,0.338-0.296,0.66-0.432,0.965c-0.102,0.219-0.169,0.414-0.203,0.584c-0.034,0.168-0.051,0.295-0.051,0.381
		c0,0.102,0.059,0.229,0.178,0.381c0.084-0.051,0.165-0.119,0.241-0.203c0.076-0.086,0.165-0.188,0.267-0.305
		c0.135-0.254,0.343-0.521,0.622-0.801s0.613-0.588,1.003-0.926c0.152-0.289,0.351-0.572,0.597-0.852
		c0.245-0.279,0.521-0.537,0.825-0.773c0.067-0.068,0.156-0.178,0.267-0.33c0.11-0.152,0.241-0.314,0.394-0.482
		c0.22-0.221,0.482-0.449,0.787-0.686c0.305-0.238,0.66-0.482,1.066-0.736c0.457-0.238,0.867-0.424,1.231-0.559
		c0.364-0.137,0.681-0.203,0.952-0.203c0.524,0,0.99,0.127,1.396,0.381s0.753,0.65,1.041,1.193c0.338,1.049,0.66,2.021,0.965,2.92
		c0.186,0.523,0.394,0.914,0.622,1.168s0.486,0.381,0.774,0.381c0.22,0,0.419-0.043,0.597-0.127
		c0.178-0.086,0.343-0.213,0.495-0.381l1.016,2.336c-0.288,0.236-0.584,0.482-0.889,0.736s-0.601,0.498-0.889,0.736
		c-0.39,0.355-0.753,0.605-1.092,0.748c-0.339,0.145-0.677,0.217-1.016,0.217c-0.39,0-0.762-0.086-1.117-0.254
		c-0.355-0.17-0.66-0.424-0.914-0.762c-0.136-0.137-0.305-0.385-0.508-0.75c-0.203-0.363-0.44-0.816-0.711-1.357
		c-0.22-0.221-0.47-0.512-0.749-0.877c-0.279-0.363-0.605-0.791-0.978-1.281l-0.229-0.076c-0.321,0.102-0.639,0.254-0.951,0.457
		c-0.313,0.203-0.647,0.465-1.001,0.787c-0.761,0.676-1.311,1.1-1.649,1.27c-0.338,0.168-0.566,0.363-0.684,0.584
		c-0.237,0.406-0.643,0.93-1.218,1.574c-0.575,0.643-1.293,1.404-2.155,2.285c-0.22,0.219-0.44,0.436-0.66,0.646
		c-0.22,0.213-0.439,0.42-0.659,0.623c-0.22,0.186-0.469,0.316-0.748,0.393c-0.279,0.076-0.588,0.115-0.926,0.115
		c-0.677,0-1.045-0.232-1.104-0.699c-0.06-0.465-0.114-0.936-0.165-1.408c0.254-0.711,0.542-1.6,0.863-2.666s0.691-2.311,1.11-3.732
		c0-0.086,0.029-0.199,0.088-0.344c0.059-0.143,0.13-0.334,0.214-0.57c0.083-0.221,0.143-0.41,0.176-0.572
		c0.033-0.16,0.05-0.301,0.05-0.418c0-0.119-0.042-0.213-0.127-0.279c-0.085-0.068-0.22-0.102-0.406-0.102
		c-0.169,0-0.394,0.102-0.673,0.305s-0.614,0.523-1.003,0.965c-0.474,0.508-0.855,0.904-1.143,1.193
		c-0.288,0.287-0.482,0.457-0.584,0.508c-0.169,0.117-0.368,0.287-0.597,0.508c-0.229,0.219-0.487,0.465-0.774,0.736
		c-0.034,0.066-0.085,0.168-0.152,0.305c-0.068,0.135-0.178,0.287-0.33,0.457c-0.068-0.254-0.186-0.568-0.355-0.939
		C92.348,211.689,92.127,211.225,91.856,210.666z"/>
	<path fill="#262626" d="M116.13,210.666c0.119-0.137,0.263-0.326,0.432-0.572c0.169-0.244,0.381-0.529,0.635-0.85
		c0.22-0.188,0.474-0.436,0.762-0.75c0.288-0.313,0.609-0.707,0.965-1.18c0.135-0.289,0.3-0.605,0.495-0.953
		c0.194-0.346,0.419-0.758,0.673-1.23c0.102-0.457,0.338-0.979,0.711-1.563c0.372-0.584,0.889-1.24,1.549-1.967
		c0.931-1.033,1.904-2.133,2.92-3.301c0.524-0.779,1.096-1.355,1.714-1.727c0.618-0.373,1.282-0.559,1.993-0.559
		c0.474,0,0.833,0.211,1.079,0.635c0.245,0.422,0.368,1.049,0.368,1.879c0,0.305-0.208,0.777-0.622,1.422
		c-0.415,0.643-1.045,1.463-1.892,2.463c-0.525,0.625-1.075,1.248-1.65,1.865c-0.576,0.619-1.143,1.248-1.701,1.893
		c-0.254,0.236-0.521,0.494-0.8,0.773s-0.58,0.588-0.901,0.928c-0.102,0.355-0.212,0.752-0.33,1.193c0,0.66,0.042,1.23,0.127,1.713
		c0.084,0.482,0.211,0.893,0.381,1.232c0.084,0.117,0.267,0.385,0.546,0.799c0.279,0.416,0.656,0.953,1.13,1.613
		c0.118,0.168,0.262,0.338,0.432,0.508c0.169,0.168,0.364,0.338,0.584,0.508c0.254-0.102,0.745-0.555,1.473-1.359
		c0.728-0.803,1.709-1.941,2.945-3.414l0.965,2.336c-0.119,0.135-0.343,0.41-0.673,0.824c-0.33,0.416-0.732,0.961-1.206,1.639
		c-0.542,0.711-1.092,1.473-1.65,2.285c0,0.168,0.08,0.363,0.241,0.584c0.161,0.219,0.359,0.465,0.597,0.736
		c0.44,0.508,0.816,1.168,1.13,1.98c0.313,0.813,0.554,1.803,0.724,2.971c-0.017,0.084-0.038,0.219-0.063,0.406
		c-0.025,0.186-0.047,0.396-0.063,0.635c-0.203,1.945-1.401,3.893-3.593,5.84c-2.192,1.945-4.262,2.92-6.208,2.92
		c-0.897,0-1.612-0.115-2.146-0.344s-0.91-0.57-1.13-1.027c-0.084-0.221-0.152-0.652-0.203-1.295
		c-0.051-0.645-0.076-1.498-0.076-2.564c0-0.102,0.047-0.301,0.14-0.598c0.093-0.295,0.25-0.697,0.47-1.205
		c0.118-0.34,0.283-0.689,0.495-1.055c0.211-0.363,0.436-0.758,0.673-1.18c0.237-0.355,0.478-0.703,0.724-1.041
		c0.245-0.34,0.478-0.678,0.698-1.016c0.542-0.594,1.024-1.117,1.447-1.574c0.321-0.322,0.571-0.627,0.749-0.914
		c0.178-0.289,0.267-0.543,0.267-0.762c-0.576-0.797-1.151-1.559-1.727-2.285c-0.609-0.762-1.104-1.523-1.485-2.285
		s-0.631-1.541-0.749-2.336c-0.017-0.102-0.085-0.264-0.203-0.482c-0.39,0.371-0.771,0.752-1.143,1.143
		c-0.068-0.254-0.186-0.568-0.355-0.939C116.621,211.689,116.401,211.225,116.13,210.666z M124.458,221.33
		c-0.102,0-0.334,0.236-0.698,0.711c-0.364,0.473-0.859,1.176-1.485,2.107c-0.355,0.559-0.711,1.125-1.066,1.701
		c-0.355,0.574-0.728,1.143-1.117,1.701c-0.136,0.186-0.33,0.625-0.584,1.32c-0.254,0.693-0.381,1.133-0.381,1.32
		c0,0.32,0.089,0.559,0.267,0.711s0.453,0.229,0.825,0.229c1.303,0,2.641-0.707,4.012-2.121c1.371-1.412,2.057-2.771,2.057-4.074
		c0-0.271-0.051-0.588-0.152-0.953c-0.102-0.363-0.237-0.766-0.406-1.205c-0.22-0.492-0.432-0.855-0.635-1.092
		C124.89,221.447,124.678,221.33,124.458,221.33z"/>
	<path fill="#262626" d="M130.095,210.666l0.152-0.178l0.076-0.254c0.457-0.627,1.261-1.443,2.412-2.451
		c1.151-1.006,1.946-1.824,2.387-2.449c0.169-0.271,0.364-0.467,0.584-0.584c0.22-0.119,0.44-0.178,0.66-0.178
		c0.592,0,1.092,0.148,1.498,0.443c0.406,0.297,0.677,0.74,0.813,1.334c0.118,0.523,0.229,1.053,0.33,1.586s0.186,1.07,0.254,1.613
		c0.118,0.338,0.262,0.85,0.432,1.535c0.169,0.686,0.296,1.08,0.381,1.182c0.084,0.168,0.211,0.291,0.381,0.367
		c0.169,0.076,0.381,0.115,0.635,0.115c0.305,0,0.618-0.055,0.939-0.166c0.321-0.109,0.651-0.301,0.99-0.57
		c0.254-0.221,0.521-0.445,0.8-0.674s0.554-0.453,0.825-0.672l1.016,2.336c-0.271,0.27-0.631,0.58-1.079,0.926
		c-0.449,0.348-0.986,0.75-1.612,1.207c-0.694,0.508-1.287,0.885-1.777,1.129c-0.491,0.246-0.863,0.369-1.117,0.369
		c-1.541,0-2.539-0.178-2.996-0.533s-0.965-1.346-1.523-2.971c-0.068-0.137-0.169-0.297-0.305-0.482
		c-0.136-0.188-0.288-0.406-0.457-0.66c-0.203-0.391-0.381-0.682-0.533-0.877c-0.152-0.193-0.279-0.291-0.381-0.291
		c-0.271,0-0.635,0.182-1.092,0.545c-0.457,0.365-1.016,0.91-1.676,1.639c-0.085-0.221-0.19-0.482-0.317-0.787
		s-0.258-0.66-0.394-1.066c-0.034-0.102-0.076-0.195-0.127-0.279C130.222,210.783,130.163,210.717,130.095,210.666z
		 M140.708,190.633c0.423,0,0.732,0.084,0.927,0.254c0.194,0.168,0.292,0.414,0.292,0.736c-0.102,0.473-0.187,0.871-0.254,1.193
		c-0.169,0.609-0.317,1.107-0.444,1.498c-0.127,0.389-0.225,0.668-0.292,0.838c-0.152,0.371-0.36,0.697-0.622,0.977
		c-0.263,0.279-0.58,0.529-0.952,0.75c-0.39,0.27-0.715,0.461-0.978,0.57c-0.263,0.111-0.444,0.156-0.546,0.141
		c-0.288-0.035-0.563-0.064-0.825-0.09c-0.263-0.025-0.521-0.037-0.774-0.037c-0.22-0.119-0.394-0.348-0.521-0.686
		c-0.127-0.34-0.19-0.797-0.19-1.371c0-0.508,0.309-1.146,0.927-1.918c0.618-0.77,1.164-1.18,1.638-1.23
		c0.288-0.355,0.626-0.762,1.016-1.219c0.169-0.119,0.389-0.217,0.66-0.293C140.039,190.67,140.353,190.633,140.708,190.633z"/>
	<path fill="#262626" d="M144.618,210.666c0.068-0.119,0.157-0.25,0.267-0.395c0.11-0.143,0.241-0.316,0.394-0.52
		c0.169-0.137,0.389-0.33,0.66-0.584c0.271-0.254,0.575-0.551,0.914-0.889c0.305-0.34,0.677-0.758,1.117-1.258
		c0.44-0.498,0.973-1.104,1.6-1.814c0.271-0.289,0.609-0.656,1.016-1.105c0.406-0.447,0.889-0.986,1.447-1.611
		c0.474-0.559,0.981-0.975,1.523-1.244c0.542-0.271,1.117-0.406,1.727-0.406s1.058,0.189,1.346,0.57
		c0.288,0.381,0.432,0.936,0.432,1.664c0,0.389-0.144,1.133-0.432,2.234c-0.288,1.1-0.736,2.555-1.346,4.367
		c-0.152,0.338-0.296,0.66-0.432,0.965c-0.102,0.219-0.169,0.414-0.203,0.584c-0.034,0.168-0.051,0.295-0.051,0.381
		c0,0.102,0.059,0.229,0.178,0.381c0.084-0.051,0.165-0.119,0.241-0.203c0.076-0.086,0.165-0.188,0.267-0.305
		c0.135-0.254,0.343-0.521,0.622-0.801s0.613-0.588,1.003-0.926c0.152-0.289,0.351-0.572,0.597-0.852
		c0.245-0.279,0.521-0.537,0.825-0.773c0.067-0.068,0.156-0.178,0.267-0.33c0.11-0.152,0.241-0.314,0.394-0.482
		c0.22-0.221,0.482-0.449,0.787-0.686c0.305-0.238,0.66-0.482,1.066-0.736c0.457-0.238,0.867-0.424,1.231-0.559
		c0.364-0.137,0.681-0.203,0.952-0.203c0.524,0,0.99,0.127,1.396,0.381s0.753,0.65,1.041,1.193c0.338,1.049,0.66,2.021,0.965,2.92
		c0.186,0.523,0.394,0.914,0.622,1.168s0.486,0.381,0.774,0.381c0.22,0,0.419-0.043,0.597-0.127
		c0.178-0.086,0.343-0.213,0.495-0.381l1.016,2.336c-0.288,0.236-0.584,0.482-0.889,0.736s-0.601,0.498-0.889,0.736
		c-0.39,0.355-0.753,0.605-1.092,0.748c-0.339,0.145-0.677,0.217-1.016,0.217c-0.39,0-0.762-0.086-1.117-0.254
		c-0.355-0.17-0.66-0.424-0.914-0.762c-0.136-0.137-0.305-0.385-0.508-0.75c-0.203-0.363-0.44-0.816-0.711-1.357
		c-0.22-0.221-0.47-0.512-0.749-0.877c-0.279-0.363-0.605-0.791-0.978-1.281l-0.229-0.076c-0.321,0.102-0.639,0.254-0.951,0.457
		c-0.313,0.203-0.647,0.465-1.001,0.787c-0.761,0.676-1.311,1.1-1.649,1.27c-0.338,0.168-0.566,0.363-0.684,0.584
		c-0.237,0.406-0.643,0.93-1.218,1.574c-0.575,0.643-1.293,1.404-2.155,2.285c-0.22,0.219-0.44,0.436-0.66,0.646
		c-0.22,0.213-0.439,0.42-0.659,0.623c-0.22,0.186-0.469,0.316-0.748,0.393c-0.279,0.076-0.588,0.115-0.926,0.115
		c-0.677,0-1.045-0.232-1.104-0.699c-0.06-0.465-0.114-0.936-0.165-1.408c0.254-0.711,0.542-1.6,0.863-2.666s0.691-2.311,1.11-3.732
		c0-0.086,0.029-0.199,0.088-0.344c0.059-0.143,0.13-0.334,0.214-0.57c0.083-0.221,0.143-0.41,0.176-0.572
		c0.033-0.16,0.05-0.301,0.05-0.418c0-0.119-0.042-0.213-0.127-0.279c-0.085-0.068-0.22-0.102-0.406-0.102
		c-0.169,0-0.394,0.102-0.673,0.305s-0.614,0.523-1.003,0.965c-0.474,0.508-0.855,0.904-1.143,1.193
		c-0.288,0.287-0.482,0.457-0.584,0.508c-0.169,0.117-0.368,0.287-0.597,0.508c-0.229,0.219-0.487,0.465-0.774,0.736
		c-0.034,0.066-0.085,0.168-0.152,0.305c-0.068,0.135-0.178,0.287-0.33,0.457c-0.068-0.254-0.186-0.568-0.355-0.939
		C145.109,211.689,144.889,211.225,144.618,210.666z"/>
	<path fill="#262626" d="M168.892,210.666c0.119-0.137,0.263-0.326,0.432-0.572c0.169-0.244,0.381-0.529,0.635-0.85
		c0.22-0.188,0.474-0.436,0.762-0.75c0.288-0.313,0.609-0.707,0.965-1.18c0.135-0.289,0.3-0.605,0.495-0.953
		c0.194-0.346,0.419-0.758,0.673-1.23c0.102-0.457,0.338-0.979,0.711-1.563c0.372-0.584,0.889-1.24,1.549-1.967
		c0.931-1.033,1.904-2.133,2.92-3.301c0.524-0.779,1.096-1.355,1.714-1.727c0.618-0.373,1.282-0.559,1.993-0.559
		c0.474,0,0.833,0.211,1.079,0.635c0.245,0.422,0.368,1.049,0.368,1.879c0,0.305-0.208,0.777-0.622,1.422
		c-0.415,0.643-1.045,1.463-1.892,2.463c-0.525,0.625-1.075,1.248-1.65,1.865c-0.576,0.619-1.143,1.248-1.701,1.893
		c-0.254,0.236-0.521,0.494-0.8,0.773s-0.58,0.588-0.901,0.928c-0.102,0.355-0.212,0.752-0.33,1.193c0,0.66,0.042,1.23,0.127,1.713
		c0.084,0.482,0.211,0.893,0.381,1.232c0.084,0.117,0.267,0.385,0.546,0.799c0.279,0.416,0.656,0.953,1.13,1.613
		c0.118,0.168,0.262,0.338,0.432,0.508c0.169,0.168,0.364,0.338,0.584,0.508c0.254-0.102,0.745-0.555,1.473-1.359
		c0.728-0.803,1.709-1.941,2.945-3.414l0.965,2.336c-0.119,0.135-0.343,0.41-0.673,0.824c-0.33,0.416-0.732,0.961-1.206,1.639
		c-0.542,0.711-1.092,1.473-1.65,2.285c0,0.168,0.08,0.363,0.241,0.584c0.161,0.219,0.359,0.465,0.597,0.736
		c0.44,0.508,0.816,1.168,1.13,1.98c0.313,0.813,0.554,1.803,0.724,2.971c-0.017,0.084-0.038,0.219-0.063,0.406
		c-0.025,0.186-0.047,0.396-0.063,0.635c-0.203,1.945-1.401,3.893-3.593,5.84c-2.192,1.945-4.262,2.92-6.208,2.92
		c-0.897,0-1.612-0.115-2.146-0.344s-0.91-0.57-1.13-1.027c-0.084-0.221-0.152-0.652-0.203-1.295
		c-0.051-0.645-0.076-1.498-0.076-2.564c0-0.102,0.047-0.301,0.14-0.598c0.093-0.295,0.25-0.697,0.47-1.205
		c0.118-0.34,0.283-0.689,0.495-1.055c0.211-0.363,0.436-0.758,0.673-1.18c0.237-0.355,0.478-0.703,0.724-1.041
		c0.245-0.34,0.478-0.678,0.698-1.016c0.542-0.594,1.024-1.117,1.447-1.574c0.321-0.322,0.571-0.627,0.749-0.914
		c0.178-0.289,0.267-0.543,0.267-0.762c-0.576-0.797-1.151-1.559-1.727-2.285c-0.609-0.762-1.104-1.523-1.485-2.285
		s-0.631-1.541-0.749-2.336c-0.017-0.102-0.085-0.264-0.203-0.482c-0.39,0.371-0.771,0.752-1.143,1.143
		c-0.068-0.254-0.186-0.568-0.355-0.939C169.383,211.689,169.163,211.225,168.892,210.666z M177.22,221.33
		c-0.102,0-0.334,0.236-0.698,0.711c-0.364,0.473-0.859,1.176-1.485,2.107c-0.355,0.559-0.711,1.125-1.066,1.701
		c-0.355,0.574-0.728,1.143-1.117,1.701c-0.136,0.186-0.33,0.625-0.584,1.32c-0.254,0.693-0.381,1.133-0.381,1.32
		c0,0.32,0.089,0.559,0.267,0.711s0.453,0.229,0.825,0.229c1.303,0,2.641-0.707,4.012-2.121c1.371-1.412,2.057-2.771,2.057-4.074
		c0-0.271-0.051-0.588-0.152-0.953c-0.102-0.363-0.237-0.766-0.406-1.205c-0.22-0.492-0.432-0.855-0.635-1.092
		C177.651,221.447,177.439,221.33,177.22,221.33z"/>
	<path fill="#262626" d="M196.669,209.549l2.311-1.523c0.084-0.086,0.186-0.199,0.305-0.344c0.118-0.143,0.254-0.352,0.406-0.621
		c0.118-0.221,0.275-0.406,0.47-0.559c0.194-0.152,0.419-0.289,0.673-0.406c0.135-0.17,0.33-0.381,0.584-0.635
		s0.575-0.551,0.965-0.889c0.186-0.102,0.423-0.25,0.711-0.445c0.288-0.193,0.601-0.453,0.939-0.773
		c1.54-1.457,2.89-2.549,4.05-3.275c1.159-0.729,2.137-1.092,2.933-1.092c0.44,0,0.766,0.092,0.978,0.279
		c0.211,0.186,0.317,0.447,0.317,0.787c0,0.355-0.063,0.668-0.19,0.939c-0.127,0.27-0.326,0.498-0.597,0.686
		c-0.423,0.305-0.88,0.643-1.371,1.016c-0.271,0.355-0.601,0.732-0.99,1.129c-0.39,0.398-0.847,0.791-1.371,1.182
		c-0.169,0.219-0.313,0.414-0.432,0.584c-0.085,0.084-0.246,0.236-0.482,0.457c-0.237,0.219-0.55,0.473-0.939,0.762
		c-0.169,0.371-0.538,0.854-1.104,1.447c-0.567,0.592-1.325,1.303-2.272,2.133c-0.119,0.117-0.33,0.389-0.635,0.813
		c-0.305,0.422-0.703,0.98-1.193,1.676l0.178,0.229c0.372-0.119,0.762-0.322,1.168-0.609c0.406-0.289,0.854-0.67,1.346-1.143
		c0.575-0.525,1.045-0.953,1.409-1.283c0.364-0.33,0.622-0.545,0.774-0.646c0.118-0.068,0.237-0.137,0.355-0.203
		c0.118-0.068,0.254-0.152,0.406-0.254c0.778-0.932,1.506-1.621,2.184-2.07c0.677-0.447,1.303-0.672,1.879-0.672
		c0.355,0,0.626,0.139,0.813,0.418c0.186,0.279,0.296,0.699,0.33,1.258c-0.034,0.846-0.051,1.658-0.051,2.438
		c-0.017,0.541,0.131,1.027,0.444,1.459c0.313,0.432,0.724,0.648,1.231,0.648c0.152,0,0.3-0.043,0.444-0.127
		c0.144-0.086,0.292-0.195,0.444-0.33c0.118-0.152,0.232-0.297,0.343-0.432c0.11-0.137,0.224-0.271,0.343-0.406
		c0.067-0.035,0.165-0.094,0.292-0.178c0.127-0.086,0.25-0.188,0.368-0.305c0.237,0.508,0.436,0.951,0.597,1.332
		c0.161,0.381,0.283,0.715,0.368,1.004c-0.39,0.355-0.774,0.723-1.155,1.104s-0.783,0.74-1.206,1.08
		c-0.508,0.389-0.999,0.682-1.473,0.875c-0.474,0.195-0.948,0.293-1.422,0.293c-1.101,0-1.947-0.314-2.539-0.939
		c-0.593-0.627-0.939-1.574-1.041-2.844c0-0.152-0.021-0.309-0.063-0.471c-0.042-0.16-0.131-0.326-0.267-0.494
		c-0.085,0.084-0.178,0.174-0.279,0.266c-0.102,0.094-0.22,0.217-0.355,0.369c-0.22,0.168-0.495,0.381-0.825,0.635
		s-0.715,0.559-1.155,0.914c-0.593,0.609-1.092,1.107-1.498,1.498c-0.406,0.389-0.694,0.668-0.863,0.838
		c-0.339,0.287-0.732,0.574-1.181,0.863c-0.449,0.287-0.952,0.584-1.511,0.889c-0.355,0.186-0.66,0.334-0.914,0.443
		c-0.254,0.111-0.44,0.166-0.559,0.166c-0.813,0-1.413-0.199-1.803-0.598c-0.389-0.396-0.584-1.012-0.584-1.84
		c0-0.457,0.098-0.893,0.292-1.309c0.195-0.414,0.487-0.816,0.876-1.205c0.034-0.221,0.051-0.398,0.051-0.533
		c0-0.086-0.021-0.174-0.063-0.268c-0.042-0.092-0.097-0.199-0.165-0.316c-0.102-0.238-0.216-0.504-0.343-0.801
		c-0.127-0.295-0.267-0.613-0.419-0.951c0.068-0.068,0.165-0.199,0.292-0.395C196.352,210.078,196.5,209.836,196.669,209.549z"/>
	<path fill="#262626" d="M215.382,210.666c0.271-0.355,0.542-0.729,0.813-1.117c1.235-1.016,2.247-1.994,3.034-2.934
		s1.358-1.814,1.714-2.627l-0.254-1.219c0.22-0.424,0.766-0.924,1.638-1.498c0.872-0.576,1.578-0.863,2.12-0.863
		c0.575,0,1.062,0.168,1.46,0.508c0.397,0.338,0.783,0.693,1.155,1.066c0.186,0.117,0.321,0.211,0.406,0.279
		c0.677,0.508,1.185,1.209,1.523,2.107c0.338,0.896,0.508,1.988,0.508,3.275c0,0.676-0.263,1.646-0.787,2.906
		c-0.525,1.262-0.787,2.213-0.787,2.857c0,0.084,0.029,0.152,0.089,0.203c0.059,0.051,0.14,0.076,0.241,0.076
		c0.22,0,0.482-0.098,0.787-0.293c0.305-0.193,0.635-0.461,0.99-0.799c0.897-0.881,1.438-1.367,1.625-1.461
		c0.186-0.092,0.415-0.25,0.686-0.469c0.135,0.338,0.296,0.701,0.482,1.092c0.186,0.389,0.364,0.803,0.533,1.244
		c-0.152,0.135-0.326,0.295-0.521,0.482c-0.195,0.186-0.428,0.396-0.698,0.635c-0.576,0.422-1.325,0.936-2.247,1.535
		c-0.923,0.602-2.027,1.291-3.313,2.07c-0.339,0.219-0.728,0.396-1.168,0.533c-0.711,0-1.244-0.105-1.6-0.318
		c-0.355-0.211-0.533-0.555-0.533-1.027c0-0.188,0.038-0.402,0.114-0.648c0.076-0.244,0.182-0.512,0.317-0.799
		c0.102-0.221,0.211-0.445,0.33-0.674c0.118-0.229,0.22-0.461,0.305-0.697c0.372-1.066,0.656-2.057,0.851-2.971
		c0.194-0.914,0.292-1.736,0.292-2.463c0-0.898-0.14-1.584-0.419-2.057c-0.279-0.475-0.698-0.746-1.257-0.813
		c-0.373,0.203-0.779,0.49-1.219,0.863c-0.44,0.371-0.889,0.838-1.346,1.396c-0.491,0.609-0.931,1.107-1.32,1.498
		c-0.39,0.389-0.711,0.65-0.965,0.787c-0.152,0.254-0.398,0.541-0.736,0.863c-0.339,0.32-0.787,0.668-1.346,1.041
		c-0.034,0.066-0.085,0.168-0.152,0.305c-0.068,0.135-0.178,0.287-0.33,0.457c-0.135-0.391-0.288-0.775-0.457-1.156
		C215.771,211.465,215.585,211.072,215.382,210.666z"/>
	<path fill="#262626" d="M232.317,210.666l0.102-0.203c0.102-0.137,0.233-0.305,0.394-0.508c0.161-0.203,0.352-0.441,0.571-0.711
		c1.202-1.117,2.374-2.451,3.517-4s2.272-3.33,3.39-5.344c0.135-0.188,0.288-0.432,0.457-0.736c0.169-0.305,0.355-0.686,0.559-1.143
		c0-0.102-0.025-0.178-0.076-0.229s-0.136-0.076-0.254-0.076c-0.102,0-0.267,0.029-0.495,0.088c-0.229,0.061-0.402,0.09-0.521,0.09
		h-3.174c-0.136,0-0.36-0.01-0.673-0.025c-0.313-0.018-0.538-0.025-0.673-0.025c-0.169-0.086-0.326-0.156-0.47-0.217
		c-0.144-0.059-0.284-0.123-0.419-0.189c-0.203-0.068-0.36-0.156-0.47-0.268c-0.11-0.109-0.165-0.24-0.165-0.393
		c0-1.084,0.114-1.914,0.343-2.488c0.229-0.576,0.581-0.863,1.055-0.863s0.919,0.021,1.334,0.063
		c0.415,0.043,0.784,0.098,1.105,0.166c0.254-0.051,0.491-0.102,0.711-0.152c0.457,0,0.847,0.016,1.169,0.051
		c0.322,0.033,0.567,0.076,0.737,0.127c0.22-0.051,0.436-0.098,0.647-0.141c0.212-0.041,0.445-0.088,0.699-0.139l0.839,0.254
		c0.593-0.068,1.225-0.898,1.895-2.488c0.669-1.592,1.386-2.387,2.148-2.387c0.406,0,0.719,0.127,0.939,0.381
		c0.22,0.254,0.33,0.625,0.33,1.117c0,0.389-0.115,0.9-0.344,1.535s-0.36,1.113-0.394,1.436c0.033,0.066,0.079,0.139,0.137,0.215
		c0.058,0.076,0.146,0.166,0.262,0.268c0.1,0.066,0.17,0.182,0.212,0.342c0.042,0.162,0.063,0.359,0.063,0.598
		c0,1.016-0.046,1.799-0.139,2.348c-0.093,0.551-0.241,0.834-0.443,0.852l-1.721,0.355c-0.034,0.168-0.076,0.377-0.127,0.621
		c-0.051,0.246-0.119,0.529-0.204,0.852c-0.289,0.846-0.611,1.92-0.967,3.225c-0.356,1.303-0.755,2.844-1.196,4.621
		c-0.271,1.422-0.479,2.572-0.624,3.453c-0.145,0.879-0.216,1.473-0.216,1.777c0,0.27,0.042,0.473,0.127,0.609
		c0.084,0.135,0.211,0.203,0.381,0.203c0.102,0,0.47-0.246,1.104-0.736c0.635-0.492,1.519-1.219,2.653-2.184l0.99,2.336
		c-0.169,0.186-0.406,0.406-0.711,0.66s-0.669,0.523-1.092,0.813c-0.169,0.186-0.381,0.393-0.635,0.621s-0.533,0.496-0.838,0.801
		c-0.305,0.338-0.605,0.676-0.901,1.016c-0.296,0.338-0.597,0.668-0.901,0.99c-0.406,0.439-0.804,0.758-1.193,0.951
		c-0.39,0.195-0.753,0.293-1.092,0.293c-0.745,0-1.299-0.221-1.663-0.66c-0.364-0.441-0.546-1.109-0.546-2.006
		c0-0.982,0.034-1.832,0.102-2.553c0.068-0.719,0.178-1.299,0.331-1.738c0.068-0.137,0.119-0.254,0.153-0.355
		c0-0.17,0.025-0.398,0.076-0.686c0.051-0.289,0.11-0.627,0.178-1.016c0.102-0.66,0.212-1.32,0.331-1.98
		c0.186-0.406,0.381-0.838,0.584-1.295c0-0.086-0.068-0.162-0.203-0.229l-0.254,0.152c-0.254,0.406-0.584,0.834-0.991,1.281
		c-0.406,0.449-0.889,0.918-1.447,1.41c-0.864,0.828-1.744,1.666-2.641,2.514c-0.051,0.084-0.145,0.211-0.28,0.381
		c-0.136,0.168-0.288,0.381-0.457,0.635c-0.085-0.203-0.19-0.461-0.317-0.775c-0.127-0.313-0.258-0.672-0.394-1.078
		c-0.034-0.102-0.076-0.195-0.127-0.279C232.444,210.783,232.385,210.717,232.317,210.666z"/>
	<path fill="#262626" d="M259.384,210.666l0.102-0.203c0.102-0.137,0.233-0.305,0.394-0.508c0.161-0.203,0.352-0.441,0.571-0.711
		c1.202-1.117,2.374-2.451,3.517-4s2.272-3.33,3.39-5.344c0.135-0.188,0.288-0.432,0.457-0.736c0.169-0.305,0.355-0.686,0.559-1.143
		c0-0.102-0.025-0.178-0.076-0.229s-0.136-0.076-0.254-0.076c-0.102,0-0.267,0.029-0.495,0.088c-0.229,0.061-0.402,0.09-0.521,0.09
		h-3.174c-0.136,0-0.36-0.01-0.673-0.025c-0.313-0.018-0.538-0.025-0.673-0.025c-0.169-0.086-0.326-0.156-0.47-0.217
		c-0.144-0.059-0.284-0.123-0.419-0.189c-0.203-0.068-0.36-0.156-0.47-0.268c-0.11-0.109-0.165-0.24-0.165-0.393
		c0-1.084,0.114-1.914,0.343-2.488c0.229-0.576,0.581-0.863,1.055-0.863s0.919,0.021,1.334,0.063
		c0.415,0.043,0.784,0.098,1.105,0.166c0.254-0.051,0.491-0.102,0.711-0.152c0.457,0,0.847,0.016,1.169,0.051
		c0.322,0.033,0.567,0.076,0.737,0.127c0.22-0.051,0.436-0.098,0.647-0.141c0.212-0.041,0.445-0.088,0.699-0.139l0.839,0.254
		c0.593-0.068,1.225-0.898,1.895-2.488c0.669-1.592,1.386-2.387,2.148-2.387c0.406,0,0.719,0.127,0.939,0.381
		c0.22,0.254,0.33,0.625,0.33,1.117c0,0.389-0.115,0.9-0.344,1.535s-0.36,1.113-0.394,1.436c0.033,0.066,0.079,0.139,0.137,0.215
		c0.058,0.076,0.146,0.166,0.262,0.268c0.1,0.066,0.17,0.182,0.212,0.342c0.042,0.162,0.063,0.359,0.063,0.598
		c0,1.016-0.046,1.799-0.139,2.348c-0.093,0.551-0.241,0.834-0.443,0.852l-1.721,0.355c-0.034,0.168-0.076,0.377-0.127,0.621
		c-0.051,0.246-0.119,0.529-0.204,0.852c-0.289,0.846-0.611,1.92-0.967,3.225c-0.356,1.303-0.755,2.844-1.196,4.621
		c-0.271,1.422-0.479,2.572-0.624,3.453c-0.145,0.879-0.216,1.473-0.216,1.777c0,0.27,0.042,0.473,0.127,0.609
		c0.084,0.135,0.211,0.203,0.381,0.203c0.102,0,0.47-0.246,1.104-0.736c0.635-0.492,1.519-1.219,2.653-2.184l0.99,2.336
		c-0.169,0.186-0.406,0.406-0.711,0.66s-0.669,0.523-1.092,0.813c-0.169,0.186-0.381,0.393-0.635,0.621s-0.533,0.496-0.838,0.801
		c-0.305,0.338-0.605,0.676-0.901,1.016c-0.296,0.338-0.597,0.668-0.901,0.99c-0.406,0.439-0.804,0.758-1.193,0.951
		c-0.39,0.195-0.753,0.293-1.092,0.293c-0.745,0-1.299-0.221-1.663-0.66c-0.364-0.441-0.546-1.109-0.546-2.006
		c0-0.982,0.034-1.832,0.102-2.553c0.068-0.719,0.178-1.299,0.331-1.738c0.068-0.137,0.119-0.254,0.153-0.355
		c0-0.17,0.025-0.398,0.076-0.686c0.051-0.289,0.11-0.627,0.178-1.016c0.102-0.66,0.212-1.32,0.331-1.98
		c0.186-0.406,0.381-0.838,0.584-1.295c0-0.086-0.068-0.162-0.203-0.229l-0.254,0.152c-0.254,0.406-0.584,0.834-0.991,1.281
		c-0.406,0.449-0.889,0.918-1.447,1.41c-0.864,0.828-1.744,1.666-2.641,2.514c-0.051,0.084-0.145,0.211-0.28,0.381
		c-0.136,0.168-0.288,0.381-0.457,0.635c-0.085-0.203-0.19-0.461-0.317-0.775c-0.127-0.313-0.258-0.672-0.394-1.078
		c-0.034-0.102-0.076-0.195-0.127-0.279C259.511,210.783,259.452,210.717,259.384,210.666z"/>
	<path fill="#262626" d="M273.45,210.666c0.119-0.119,0.241-0.275,0.368-0.471c0.127-0.193,0.275-0.41,0.444-0.646l1.955-1.346
		c0.237-0.289,0.601-0.656,1.092-1.105c0.491-0.447,1.1-0.994,1.828-1.637c0.084-0.188,0.224-0.402,0.419-0.648
		c0.194-0.244,0.427-0.486,0.698-0.723c0.237-0.221,0.474-0.428,0.711-0.623c0.237-0.193,0.457-0.385,0.66-0.57
		c0.254-0.254,0.495-0.508,0.724-0.762s0.461-0.5,0.698-0.736c0.271-0.238,0.55-0.424,0.838-0.559
		c0.288-0.137,0.601-0.203,0.939-0.203c0.372,0,0.656,0.047,0.851,0.139c0.194,0.094,0.3,0.225,0.317,0.395
		c-0.169,0.389-0.347,0.777-0.533,1.168l0.152,0.229c0.745-0.289,1.329-0.5,1.752-0.635c0.423-0.137,0.694-0.203,0.813-0.203
		c1.235,0,2.162,0.377,2.78,1.129c0.618,0.754,0.927,1.893,0.927,3.416c0,0.287-0.034,0.625-0.102,1.016
		c-0.067,0.389-0.178,0.813-0.33,1.27c-0.17,0.508-0.352,0.93-0.546,1.27c-0.194,0.338-0.377,0.584-0.546,0.736
		c0.067,0.219,0.144,0.377,0.229,0.469c0.084,0.094,0.194,0.141,0.33,0.141c0.135,0,0.275-0.043,0.419-0.127
		c0.144-0.086,0.317-0.213,0.521-0.381c0.169,0.371,0.334,0.758,0.495,1.154c0.161,0.398,0.326,0.791,0.495,1.182
		c-0.305,0.27-0.601,0.533-0.889,0.787s-0.593,0.498-0.914,0.736c-0.39,0.32-0.758,0.555-1.104,0.697
		c-0.347,0.145-0.69,0.217-1.028,0.217c-0.39,0-0.711-0.094-0.965-0.279c-0.254-0.188-0.457-0.449-0.609-0.787
		c-0.423,0.559-0.936,1.07-1.536,1.535c-0.601,0.467-1.266,0.852-1.993,1.156c-0.423,0.203-0.809,0.359-1.155,0.469
		c-0.347,0.111-0.665,0.166-0.952,0.166c-0.085,0-0.25,0.033-0.495,0.102c-0.246,0.066-0.444,0.102-0.597,0.102
		c-0.965,0-1.837-0.406-2.615-1.219c-0.779-0.813-1.168-1.719-1.168-2.717c0-0.406,0.093-0.943,0.279-1.613
		c0.186-0.668,0.279-1.063,0.279-1.18c0-0.119-0.038-0.217-0.114-0.293s-0.182-0.113-0.317-0.113c-0.085,0-0.288,0.127-0.609,0.381
		c-0.322,0.254-0.779,0.617-1.371,1.092c-0.051,0.066-0.11,0.168-0.178,0.305c-0.068,0.135-0.178,0.287-0.33,0.457
		c-0.135-0.391-0.288-0.783-0.457-1.182C273.84,211.424,273.653,211.037,273.45,210.666z M285.663,206.02
		c-0.085,0.016-0.208,0.105-0.368,0.266c-0.161,0.162-0.317,0.359-0.47,0.598c-0.237,0.389-0.508,0.813-0.813,1.27
		c-0.187,0.203-0.385,0.359-0.597,0.469c-0.212,0.111-0.453,0.191-0.724,0.242c-0.169,0.016-0.347,0.182-0.533,0.494
		c-0.187,0.314-0.373,0.766-0.559,1.359c-0.187,0.523-0.322,0.973-0.406,1.346c-0.085,0.371-0.127,0.686-0.127,0.939
		c0,0.473,0.118,0.828,0.355,1.066c0.237,0.236,0.601,0.355,1.092,0.355c0.778,0,1.494-0.217,2.146-0.648
		c0.651-0.432,1.265-1.078,1.841-1.941c0.271-0.322,0.524-0.627,0.762-0.914c0.135-0.102,0.245-0.268,0.33-0.496
		c0.084-0.229,0.169-0.512,0.254-0.85l0.457-1.447c-0.152-0.508-0.296-0.91-0.432-1.207c-0.136-0.295-0.271-0.479-0.406-0.545
		c-0.085-0.051-0.271-0.105-0.559-0.166C286.619,206.15,286.205,206.086,285.663,206.02z"/>
	<path fill="#262626" d="M304.808,210.666l0.229-0.203c0.016-0.188,0.135-0.406,0.355-0.66c0.219-0.254,0.533-0.551,0.939-0.889
		c0.254-0.188,0.52-0.365,0.799-0.533c0.279-0.17,0.547-0.355,0.801-0.559c1.066-0.914,2.098-1.795,3.098-2.641
		c0.574-0.508,1.15-0.943,1.727-1.309c0.574-0.363,1.117-0.656,1.625-0.875c0.355-0.457,1.02-0.924,1.992-1.396
		c0.975-0.475,1.766-0.711,2.375-0.711c0.236,0,0.428,0.066,0.57,0.203c0.145,0.135,0.232,0.305,0.268,0.508v1.396
		c0,0.49-0.141,0.926-0.42,1.307s-0.697,0.732-1.256,1.055c-0.373,0.168-0.746,0.355-1.117,0.559
		c-0.373,0.203-0.746,0.389-1.117,0.559c-0.137,0.168-0.496,0.486-1.08,0.951c-0.584,0.467-1.375,1.088-2.373,1.867
		c-0.457,0.355-0.838,0.672-1.143,0.951s-0.518,0.504-0.635,0.674c-0.17,0.32-0.301,0.676-0.395,1.066
		c-0.092,0.389-0.139,0.838-0.139,1.346c0,0.389,0.059,0.723,0.178,1.002c0.117,0.279,0.295,0.504,0.533,0.674
		c0.168,0.117,0.402,0.236,0.697,0.355c0.297,0.117,0.664,0.236,1.105,0.355c0.254-0.102,0.588-0.199,1.002-0.293
		c0.416-0.092,0.877-0.215,1.385-0.367c0.574-0.34,1.164-0.695,1.764-1.066c0.602-0.373,1.197-0.754,1.791-1.143
		c0.084-0.051,0.189-0.105,0.316-0.166c0.127-0.059,0.258-0.148,0.395-0.266c0.168-0.221,0.402-0.475,0.697-0.762
		c0.297-0.289,0.656-0.619,1.08-0.99c0.676,1.473,1.016,2.25,1.016,2.336c-0.627,0.508-1.262,1.027-1.904,1.561
		c-0.645,0.533-1.381,0.969-2.209,1.309c-0.271,0.219-0.5,0.422-0.686,0.609c-0.848,0.846-1.832,1.484-2.959,1.916
		c-1.125,0.432-2.408,0.648-3.846,0.648c-0.322,0-0.609-0.025-0.863-0.076s-0.467-0.119-0.635-0.203
		c-0.508-0.34-0.939-0.635-1.295-0.889c-0.373-0.271-0.686-0.529-0.939-0.775c-0.254-0.244-0.441-0.479-0.559-0.697
		c-0.152-0.238-0.258-0.525-0.318-0.863c-0.059-0.34-0.088-0.754-0.088-1.244c0-0.137,0.041-0.355,0.127-0.66
		c0.084-0.305,0.127-0.518,0.127-0.635c-0.119-0.373-0.264-0.754-0.432-1.143C305.222,211.469,305.026,211.072,304.808,210.666z"/>
	<path fill="#262626" d="M320.829,210.666c0.117-0.119,0.24-0.275,0.367-0.471c0.127-0.193,0.275-0.41,0.445-0.646l1.955-1.346
		c0.236-0.289,0.6-0.656,1.092-1.105c0.49-0.447,1.1-0.994,1.828-1.637c0.084-0.188,0.225-0.402,0.418-0.648
		c0.195-0.244,0.428-0.486,0.699-0.723c0.236-0.221,0.473-0.428,0.711-0.623c0.236-0.193,0.457-0.385,0.66-0.57
		c0.254-0.254,0.494-0.508,0.723-0.762s0.461-0.5,0.699-0.736c0.27-0.238,0.549-0.424,0.838-0.559
		c0.287-0.137,0.6-0.203,0.939-0.203c0.371,0,0.656,0.047,0.85,0.139c0.195,0.094,0.301,0.225,0.318,0.395
		c-0.17,0.389-0.348,0.777-0.533,1.168l0.152,0.229c0.744-0.289,1.328-0.5,1.752-0.635c0.422-0.137,0.693-0.203,0.813-0.203
		c1.234,0,2.162,0.377,2.779,1.129c0.619,0.754,0.928,1.893,0.928,3.416c0,0.287-0.035,0.625-0.102,1.016
		c-0.068,0.389-0.178,0.813-0.33,1.27c-0.17,0.508-0.352,0.93-0.547,1.27c-0.193,0.338-0.377,0.584-0.545,0.736
		c0.066,0.219,0.143,0.377,0.229,0.469c0.084,0.094,0.193,0.141,0.33,0.141c0.135,0,0.275-0.043,0.418-0.127
		c0.145-0.086,0.318-0.213,0.521-0.381c0.168,0.371,0.334,0.758,0.494,1.154c0.162,0.398,0.326,0.791,0.496,1.182
		c-0.305,0.27-0.602,0.533-0.889,0.787c-0.289,0.254-0.594,0.498-0.914,0.736c-0.391,0.32-0.758,0.555-1.105,0.697
		c-0.346,0.145-0.689,0.217-1.027,0.217c-0.391,0-0.711-0.094-0.965-0.279c-0.254-0.188-0.457-0.449-0.609-0.787
		c-0.424,0.559-0.936,1.07-1.537,1.535c-0.6,0.467-1.266,0.852-1.992,1.156c-0.424,0.203-0.809,0.359-1.156,0.469
		c-0.346,0.111-0.664,0.166-0.951,0.166c-0.086,0-0.25,0.033-0.496,0.102c-0.244,0.066-0.443,0.102-0.596,0.102
		c-0.965,0-1.838-0.406-2.615-1.219c-0.779-0.813-1.168-1.719-1.168-2.717c0-0.406,0.092-0.943,0.279-1.613
		c0.186-0.668,0.279-1.063,0.279-1.18c0-0.119-0.039-0.217-0.115-0.293s-0.182-0.113-0.316-0.113c-0.086,0-0.289,0.127-0.609,0.381
		c-0.322,0.254-0.779,0.617-1.371,1.092c-0.051,0.066-0.111,0.168-0.178,0.305c-0.068,0.135-0.178,0.287-0.33,0.457
		c-0.137-0.391-0.289-0.783-0.457-1.182C321.218,211.424,321.032,211.037,320.829,210.666z M333.042,206.02
		c-0.086,0.016-0.207,0.105-0.369,0.266c-0.16,0.162-0.316,0.359-0.469,0.598c-0.238,0.389-0.508,0.813-0.813,1.27
		c-0.188,0.203-0.385,0.359-0.598,0.469c-0.211,0.111-0.453,0.191-0.723,0.242c-0.17,0.016-0.348,0.182-0.533,0.494
		c-0.188,0.314-0.373,0.766-0.559,1.359c-0.188,0.523-0.322,0.973-0.406,1.346c-0.086,0.371-0.127,0.686-0.127,0.939
		c0,0.473,0.117,0.828,0.355,1.066c0.236,0.236,0.6,0.355,1.092,0.355c0.777,0,1.494-0.217,2.145-0.648
		c0.652-0.432,1.266-1.078,1.842-1.941c0.27-0.322,0.523-0.627,0.762-0.914c0.135-0.102,0.244-0.268,0.33-0.496
		c0.084-0.229,0.168-0.512,0.254-0.85l0.457-1.447c-0.152-0.508-0.297-0.91-0.432-1.207c-0.137-0.295-0.271-0.479-0.406-0.545
		c-0.086-0.051-0.271-0.105-0.559-0.166C333.997,206.15,333.583,206.086,333.042,206.02z"/>
	<path fill="#262626" d="M339.187,210.666l0.152-0.178l0.076-0.254c0.305-0.373,0.566-0.664,0.787-0.877
		c0.219-0.211,0.389-0.377,0.508-0.494c0.084-0.086,0.27-0.195,0.559-0.33c0.287-0.137,0.676-0.305,1.168-0.508l0.33-0.203
		c0.117-0.188,0.33-0.457,0.635-0.813s0.668-0.762,1.092-1.219c0.084-0.102,0.211-0.213,0.381-0.33
		c0.168-0.119,0.346-0.271,0.533-0.457c0.406-0.391,0.813-0.791,1.219-1.207c0.406-0.414,0.787-0.824,1.143-1.23
		c0.152-0.152,0.465-0.428,0.939-0.826c0.473-0.396,1.117-0.951,1.93-1.662c0.117-0.086,0.33-0.207,0.635-0.369
		c0.305-0.16,0.701-0.352,1.193-0.57c0.219-0.102,0.385-0.268,0.494-0.496c0.111-0.229,0.166-0.52,0.166-0.875
		c0.135-0.221,0.266-0.486,0.393-0.801c0.127-0.313,0.25-0.682,0.369-1.104c0.168-0.525,0.301-0.953,0.393-1.283
		c0.094-0.33,0.166-0.555,0.217-0.672c0.287-0.762,0.676-1.654,1.168-2.68c0.49-1.023,1.074-2.195,1.752-3.516
		c0.338-0.695,0.736-1.465,1.193-2.311c0.287-0.424,0.609-0.74,0.965-0.953c0.355-0.211,0.727-0.316,1.117-0.316
		c0.305,0,0.529,0.117,0.672,0.355c0.145,0.236,0.217,0.584,0.217,1.041c0,0.727-0.051,1.422-0.152,2.082s-0.289,1.277-0.559,1.854
		c-0.051,0.117-0.094,0.295-0.127,0.533c-0.035,0.236-0.068,0.523-0.102,0.863c-0.018,0.236-0.08,0.465-0.191,0.686
		c-0.109,0.219-0.25,0.422-0.418,0.609c0,0.117-0.018,0.258-0.051,0.418c-0.035,0.162-0.068,0.352-0.102,0.572l-0.355,0.457
		c-0.035,0.102-0.051,0.225-0.051,0.367c0,0.145,0,0.293,0,0.445c0,0.102-0.061,0.301-0.178,0.596
		c-0.119,0.297-0.297,0.715-0.533,1.258c-0.271,0.574-0.486,1.031-0.648,1.371c-0.16,0.338-0.25,0.549-0.266,0.635
		c-0.068,0.084-0.156,0.219-0.268,0.406c-0.109,0.186-0.24,0.396-0.393,0.635l0.076,0.559l-1.625,5.84
		c0,0.643,0.008,1.193,0.025,1.65c0.016,0.457,0.066,0.82,0.152,1.092c0.084,0.287,0.225,0.639,0.418,1.053
		c0.195,0.416,0.445,0.859,0.75,1.334c0.186,0.32,0.406,0.555,0.66,0.697c0.254,0.145,0.523,0.217,0.813,0.217
		c0.32,0,0.646-0.09,0.977-0.268s0.664-0.453,1.004-0.824c0.203,0.439,0.393,0.854,0.57,1.244c0.178,0.389,0.326,0.752,0.445,1.092
		c-0.086,0.051-0.268,0.225-0.547,0.52c-0.279,0.297-0.646,0.715-1.104,1.258c-0.271,0.32-0.605,0.555-1.004,0.697
		c-0.396,0.145-0.885,0.217-1.459,0.217c-1.27,0-2.303-0.33-3.098-0.99c-0.797-0.66-1.355-1.65-1.676-2.971
		c-0.068-0.271-0.127-0.508-0.178-0.711s-0.102-0.391-0.152-0.559c-0.119-0.322-0.322-0.67-0.609-1.041
		c-0.119,0.168-0.213,0.295-0.279,0.381c-0.203,0.135-0.428,0.33-0.674,0.584c-0.244,0.254-0.494,0.574-0.748,0.965
		c-0.051,0.168-0.145,0.377-0.279,0.621c-0.137,0.246-0.322,0.537-0.559,0.877c-0.543,0.625-1.092,1.256-1.65,1.891
		s-1.117,1.258-1.676,1.867c-0.762,0.846-1.465,1.469-2.107,1.865c-0.645,0.398-1.203,0.598-1.676,0.598
		c-0.848,0-1.473-0.199-1.879-0.598c-0.406-0.396-0.609-1.02-0.609-1.865c0-0.391,0.143-0.936,0.432-1.639
		c0.287-0.701,0.432-1.223,0.432-1.561l-0.152-0.406L339.187,210.666z M351.958,203.404c0-0.086-0.035-0.213-0.102-0.381
		c-0.254,0.254-0.568,0.549-0.939,0.889c-0.373,0.338-0.813,0.711-1.32,1.117c-0.119,0.27-0.391,0.697-0.813,1.281
		c-0.424,0.584-1.016,1.309-1.777,2.172c-0.221,0.254-0.518,0.689-0.889,1.307c-0.373,0.619-0.83,1.375-1.371,2.273
		c-0.188,0.355-0.381,0.787-0.584,1.295c0,0.102,0.066,0.211,0.203,0.33c0.508-0.152,1.129-0.598,1.865-1.334
		s1.613-1.756,2.629-3.059c1.049-1.389,1.828-2.568,2.336-3.543C351.704,204.779,351.958,203.996,351.958,203.404z"/>
	<path fill="#262626" d="M360.413,210.666l0.152-0.178l0.076-0.254c0.457-0.627,1.26-1.443,2.412-2.451
		c1.15-1.006,1.945-1.824,2.387-2.449c0.168-0.271,0.363-0.467,0.584-0.584c0.219-0.119,0.439-0.178,0.66-0.178
		c0.592,0,1.092,0.148,1.498,0.443c0.406,0.297,0.676,0.74,0.813,1.334c0.117,0.523,0.229,1.053,0.33,1.586s0.186,1.07,0.254,1.613
		c0.117,0.338,0.262,0.85,0.432,1.535c0.168,0.686,0.295,1.08,0.381,1.182c0.084,0.168,0.211,0.291,0.381,0.367
		c0.168,0.076,0.381,0.115,0.635,0.115c0.305,0,0.617-0.055,0.939-0.166c0.32-0.109,0.65-0.301,0.99-0.57
		c0.254-0.221,0.52-0.445,0.799-0.674s0.555-0.453,0.826-0.672l1.016,2.336c-0.271,0.27-0.631,0.58-1.08,0.926
		c-0.447,0.348-0.986,0.75-1.611,1.207c-0.695,0.508-1.287,0.885-1.777,1.129c-0.492,0.246-0.863,0.369-1.117,0.369
		c-1.541,0-2.539-0.178-2.996-0.533s-0.965-1.346-1.523-2.971c-0.068-0.137-0.17-0.297-0.305-0.482
		c-0.137-0.188-0.289-0.406-0.457-0.66c-0.203-0.391-0.381-0.682-0.533-0.877c-0.152-0.193-0.279-0.291-0.381-0.291
		c-0.271,0-0.635,0.182-1.092,0.545c-0.457,0.365-1.016,0.91-1.676,1.639c-0.086-0.221-0.191-0.482-0.318-0.787
		s-0.258-0.66-0.393-1.066c-0.035-0.102-0.076-0.195-0.127-0.279C360.54,210.783,360.479,210.717,360.413,210.666z M371.026,190.633
		c0.422,0,0.732,0.084,0.926,0.254c0.195,0.168,0.293,0.414,0.293,0.736c-0.102,0.473-0.188,0.871-0.254,1.193
		c-0.17,0.609-0.318,1.107-0.445,1.498c-0.127,0.389-0.225,0.668-0.291,0.838c-0.152,0.371-0.359,0.697-0.623,0.977
		c-0.262,0.279-0.58,0.529-0.951,0.75c-0.391,0.27-0.715,0.461-0.979,0.57c-0.262,0.111-0.443,0.156-0.545,0.141
		c-0.289-0.035-0.563-0.064-0.826-0.09c-0.262-0.025-0.52-0.037-0.773-0.037c-0.221-0.119-0.395-0.348-0.521-0.686
		c-0.127-0.34-0.189-0.797-0.189-1.371c0-0.508,0.309-1.146,0.926-1.918c0.619-0.77,1.164-1.18,1.639-1.23
		c0.287-0.355,0.625-0.762,1.016-1.219c0.168-0.119,0.389-0.217,0.66-0.293C370.356,190.67,370.671,190.633,371.026,190.633z"/>
	<path fill="#262626" d="M374.937,210.666c0.066-0.119,0.156-0.25,0.266-0.395c0.111-0.143,0.242-0.316,0.395-0.52
		c0.168-0.137,0.389-0.33,0.66-0.584c0.27-0.254,0.574-0.551,0.914-0.889c0.305-0.34,0.676-0.758,1.117-1.258
		c0.439-0.498,0.973-1.104,1.6-1.814c0.27-0.289,0.609-0.656,1.016-1.105c0.406-0.447,0.889-0.986,1.447-1.611
		c0.473-0.559,0.98-0.975,1.523-1.244c0.541-0.271,1.117-0.406,1.727-0.406s1.057,0.189,1.346,0.57
		c0.287,0.381,0.432,0.936,0.432,1.664c0,0.389-0.145,1.133-0.432,2.234c-0.289,1.1-0.736,2.555-1.346,4.367
		c-0.152,0.338-0.297,0.66-0.432,0.965c-0.102,0.219-0.17,0.414-0.203,0.584c-0.035,0.168-0.051,0.295-0.051,0.381
		c0,0.102,0.059,0.229,0.178,0.381c0.084-0.051,0.164-0.119,0.24-0.203c0.076-0.086,0.166-0.188,0.268-0.305
		c0.135-0.254,0.342-0.521,0.621-0.801s0.613-0.588,1.004-0.926c0.152-0.289,0.352-0.572,0.596-0.852
		c0.246-0.279,0.521-0.537,0.826-0.773c0.066-0.068,0.156-0.178,0.266-0.33c0.111-0.152,0.242-0.314,0.395-0.482
		c0.219-0.221,0.482-0.449,0.787-0.686c0.305-0.238,0.66-0.482,1.066-0.736c0.457-0.238,0.867-0.424,1.23-0.559
		c0.365-0.137,0.682-0.203,0.953-0.203c0.523,0,0.99,0.127,1.396,0.381s0.752,0.65,1.041,1.193c0.338,1.049,0.66,2.021,0.965,2.92
		c0.186,0.523,0.393,0.914,0.621,1.168s0.486,0.381,0.775,0.381c0.219,0,0.418-0.043,0.596-0.127
		c0.178-0.086,0.344-0.213,0.496-0.381l1.016,2.336c-0.289,0.236-0.584,0.482-0.889,0.736s-0.602,0.498-0.889,0.736
		c-0.391,0.355-0.754,0.605-1.092,0.748c-0.34,0.145-0.678,0.217-1.016,0.217c-0.391,0-0.762-0.086-1.117-0.254
		c-0.355-0.17-0.66-0.424-0.914-0.762c-0.137-0.137-0.305-0.385-0.508-0.75c-0.203-0.363-0.441-0.816-0.711-1.357
		c-0.221-0.221-0.471-0.512-0.75-0.877c-0.279-0.363-0.605-0.791-0.977-1.281l-0.229-0.076c-0.322,0.102-0.639,0.254-0.951,0.457
		s-0.646,0.465-1.002,0.787c-0.762,0.676-1.311,1.1-1.648,1.27c-0.338,0.168-0.566,0.363-0.686,0.584
		c-0.236,0.406-0.643,0.93-1.217,1.574c-0.574,0.643-1.293,1.404-2.156,2.285c-0.219,0.219-0.439,0.436-0.658,0.646
		c-0.221,0.213-0.439,0.42-0.66,0.623c-0.219,0.186-0.469,0.316-0.748,0.393s-0.588,0.115-0.926,0.115
		c-0.676,0-1.045-0.232-1.104-0.699c-0.061-0.465-0.115-0.936-0.166-1.408c0.254-0.711,0.543-1.6,0.863-2.666
		c0.322-1.066,0.691-2.311,1.111-3.732c0-0.086,0.027-0.199,0.086-0.344c0.061-0.143,0.131-0.334,0.215-0.57
		c0.084-0.221,0.143-0.41,0.176-0.572c0.033-0.16,0.051-0.301,0.051-0.418c0-0.119-0.043-0.213-0.127-0.279
		c-0.086-0.068-0.221-0.102-0.406-0.102c-0.17,0-0.395,0.102-0.674,0.305s-0.613,0.523-1.002,0.965
		c-0.475,0.508-0.855,0.904-1.143,1.193c-0.289,0.287-0.482,0.457-0.584,0.508c-0.17,0.117-0.369,0.287-0.598,0.508
		c-0.229,0.219-0.486,0.465-0.773,0.736c-0.035,0.066-0.086,0.168-0.152,0.305c-0.068,0.135-0.178,0.287-0.33,0.457
		c-0.068-0.254-0.188-0.568-0.355-0.939C375.427,211.689,375.206,211.225,374.937,210.666z"/>
	<path fill="#262626" d="M399.21,210.666c0.117-0.137,0.262-0.326,0.432-0.572c0.168-0.244,0.381-0.529,0.635-0.85
		c0.219-0.188,0.473-0.436,0.762-0.75c0.287-0.313,0.609-0.707,0.965-1.18c0.135-0.289,0.301-0.605,0.494-0.953
		c0.195-0.346,0.42-0.758,0.674-1.23c0.102-0.457,0.338-0.979,0.711-1.563c0.371-0.584,0.889-1.24,1.549-1.967
		c0.93-1.033,1.904-2.133,2.92-3.301c0.523-0.779,1.096-1.355,1.713-1.727c0.619-0.373,1.283-0.559,1.994-0.559
		c0.473,0,0.834,0.211,1.078,0.635c0.246,0.422,0.369,1.049,0.369,1.879c0,0.305-0.207,0.777-0.623,1.422
		c-0.414,0.643-1.045,1.463-1.891,2.463c-0.525,0.625-1.076,1.248-1.65,1.865c-0.576,0.619-1.143,1.248-1.701,1.893
		c-0.254,0.236-0.521,0.494-0.801,0.773s-0.58,0.588-0.9,0.928c-0.102,0.355-0.213,0.752-0.33,1.193c0,0.66,0.041,1.23,0.127,1.713
		c0.084,0.482,0.211,0.893,0.381,1.232c0.084,0.117,0.266,0.385,0.545,0.799c0.279,0.416,0.656,0.953,1.131,1.613
		c0.117,0.168,0.262,0.338,0.432,0.508c0.168,0.168,0.363,0.338,0.584,0.508c0.254-0.102,0.744-0.555,1.473-1.359
		c0.727-0.803,1.709-1.941,2.945-3.414l0.965,2.336c-0.119,0.135-0.344,0.41-0.674,0.824c-0.33,0.416-0.732,0.961-1.205,1.639
		c-0.543,0.711-1.092,1.473-1.65,2.285c0,0.168,0.08,0.363,0.24,0.584c0.162,0.219,0.359,0.465,0.598,0.736
		c0.439,0.508,0.816,1.168,1.129,1.98c0.314,0.813,0.555,1.803,0.725,2.971c-0.018,0.084-0.039,0.219-0.064,0.406
		c-0.025,0.186-0.047,0.396-0.063,0.635c-0.203,1.945-1.4,3.893-3.594,5.84c-2.191,1.945-4.262,2.92-6.207,2.92
		c-0.898,0-1.613-0.115-2.146-0.344s-0.91-0.57-1.129-1.027c-0.086-0.221-0.152-0.652-0.203-1.295
		c-0.051-0.645-0.076-1.498-0.076-2.564c0-0.102,0.047-0.301,0.139-0.598c0.094-0.295,0.25-0.697,0.471-1.205
		c0.117-0.34,0.283-0.689,0.494-1.055c0.213-0.363,0.436-0.758,0.674-1.18c0.236-0.355,0.479-0.703,0.723-1.041
		c0.246-0.34,0.479-0.678,0.699-1.016c0.541-0.594,1.023-1.117,1.447-1.574c0.32-0.322,0.57-0.627,0.748-0.914
		c0.178-0.289,0.268-0.543,0.268-0.762c-0.576-0.797-1.152-1.559-1.727-2.285c-0.609-0.762-1.105-1.523-1.486-2.285
		s-0.631-1.541-0.748-2.336c-0.018-0.102-0.086-0.264-0.203-0.482c-0.391,0.371-0.771,0.752-1.143,1.143
		c-0.068-0.254-0.188-0.568-0.355-0.939C399.7,211.689,399.479,211.225,399.21,210.666z M407.538,221.33
		c-0.102,0-0.334,0.236-0.699,0.711c-0.363,0.473-0.859,1.176-1.484,2.107c-0.355,0.559-0.711,1.125-1.066,1.701
		c-0.355,0.574-0.729,1.143-1.117,1.701c-0.137,0.186-0.33,0.625-0.584,1.32c-0.254,0.693-0.381,1.133-0.381,1.32
		c0,0.32,0.088,0.559,0.266,0.711s0.453,0.229,0.826,0.229c1.303,0,2.641-0.707,4.012-2.121c1.371-1.412,2.057-2.771,2.057-4.074
		c0-0.271-0.051-0.588-0.152-0.953c-0.102-0.363-0.238-0.766-0.406-1.205c-0.221-0.492-0.432-0.855-0.635-1.092
		C407.97,221.447,407.757,221.33,407.538,221.33z"/>
</g>
</svg>
