<?xml version="1.0" encoding="utf-8"?>
<!-- Generator: Adobe Illustrator 16.0.0, SVG Export Plug-In . SVG Version: 6.00 Build 0)  -->
<!DOCTYPE svg PUBLIC "-//W3C//DTD SVG 1.1//EN" "http://www.w3.org/Graphics/SVG/1.1/DTD/svg11.dtd">
<svg version="1.1" id="Layer_1" xmlns="http://www.w3.org/2000/svg" xmlns:xlink="http://www.w3.org/1999/xlink" x="0px" y="0px"
	 width="600px" height="300px" viewBox="0 0 600 300" enable-background="new 0 0 600 300" xml:space="preserve">
<g>
	<path fill="#F4B41A" d="M90.526,119.694c0,0.049,0.024,0.073,0.075,0.073c1.462,1.458,2.191,3.253,2.191,5.364
		c0,2.063-0.745,3.846-2.228,5.329c-1.486,1.483-3.263,2.226-5.33,2.226c-2.114,0-3.902-0.754-5.365-2.262h-0.075
		c-4.333-4.33-9.597-6.501-15.793-6.501s-11.484,2.184-15.868,6.538c-4.381,4.354-6.574,9.629-6.574,15.827
		c0,6.196,2.193,11.483,6.574,15.874c4.384,4.378,9.671,6.567,15.868,6.567c6.146,0,11.412-2.166,15.793-6.497
		c0.051-0.047,0.102-0.094,0.153-0.142c1.459-1.472,3.248-2.202,5.365-2.202c2.114,0,3.93,0.754,5.439,2.237
		c1.511,1.484,2.268,3.278,2.268,5.395c0,2.118-0.757,3.937-2.268,5.444c-0.051,0.047-0.101,0.106-0.151,0.154
		c-7.303,7.297-16.17,10.958-26.599,10.958c-10.428,0-19.318-3.686-26.673-11.042c-7.357-7.345-11.032-16.244-11.032-26.664
		c0-10.431,3.675-19.319,11.032-26.676c7.354-7.356,16.245-11.035,26.673-11.035c10.429,0,19.295,3.655,26.599,10.958
		L90.526,119.694z"/>
	<path fill="#F4B41A" d="M167.677,119.694c7.354,7.357,11.032,16.245,11.032,26.676c0,10.419-3.678,19.319-11.032,26.664
		c-7.357,7.356-16.248,11.042-26.676,11.042c-10.429,0-19.319-3.686-26.673-11.042c-7.357-7.345-11.032-16.244-11.032-26.664
		c0-10.431,3.675-19.319,11.032-26.676c7.354-7.356,16.244-11.035,26.673-11.035C151.429,108.66,160.319,112.338,167.677,119.694z
		 M141.001,123.923c-6.196,0-11.484,2.184-15.868,6.538c-4.381,4.354-6.573,9.629-6.573,15.827c0,6.196,2.192,11.483,6.573,15.874
		c4.384,4.378,9.672,6.567,15.868,6.567c6.197,0,11.472-2.189,15.832-6.567c4.357-4.391,6.534-9.678,6.534-15.874
		c0-6.197-2.177-11.472-6.534-15.827C152.473,126.107,147.198,123.923,141.001,123.923z"/>
	<path fill="#F4B41A" d="M269.531,146.742c-0.095,10.274-3.78,19.043-11.029,26.292c-7.357,7.356-16.244,11.042-26.675,11.042
		c-10.431,0-19.319-3.686-26.673-11.042c-7.356-7.345-11.032-16.244-11.032-26.664c0-10.431,3.675-19.319,11.032-26.676
		c7.354-7.356,16.242-11.035,26.673-11.035c8.41,0,15.838,2.423,22.297,7.255V93.701c0-2.117,0.754-3.936,2.261-5.443
		s3.325-2.267,5.442-2.267c2.118,0,3.923,0.759,5.443,2.267c1.507,1.507,2.261,3.326,2.261,5.443V146.742z M254.196,147.95
		c-0.048-0.456-0.072-0.909-0.072-1.364v-2.871c-0.562-5.03-2.704-9.415-6.423-13.141c-4.39-4.385-9.678-6.573-15.874-6.573
		c-6.196,0-11.471,2.188-15.826,6.573c-4.367,4.384-6.543,9.671-6.543,15.868s2.177,11.473,6.543,15.825
		c4.354,4.367,9.63,6.545,15.826,6.545c6.196,0,11.484-2.188,15.874-6.581C251.72,158.261,253.897,153.5,254.196,147.95z"/>
	<path fill="#F4B41A" d="M292.661,101.105c-2.118,0-3.93-0.754-5.443-2.272c-1.507-1.507-2.267-3.321-2.267-5.438
		c0-2.111,0.76-3.93,2.267-5.438c1.514-1.518,3.326-2.271,5.443-2.271c2.117,0,3.93,0.754,5.442,2.271
		c1.507,1.508,2.267,3.326,2.267,5.438c0,2.117-0.76,3.93-2.267,5.438C296.59,100.352,294.778,101.105,292.661,101.105z
		 M292.661,184.076c-2.118,0-3.93-0.754-5.443-2.273c-1.507-1.508-2.267-3.325-2.267-5.442v-60.445c0-2.118,0.76-3.93,2.267-5.442
		c1.514-1.508,3.326-2.267,5.443-2.267c2.117,0,3.93,0.759,5.442,2.267c1.507,1.513,2.267,3.325,2.267,5.442v60.445
		c0,2.117-0.76,3.935-2.267,5.442C296.59,183.322,294.778,184.076,292.661,184.076z"/>
	<path fill="#F4B41A" d="M353.715,108.511c10.629,0.604,19.367,4.33,26.222,11.184c7.256,7.25,10.927,16.018,11.03,26.294v29.163
		c0,2.931-0.754,5.144-2.268,6.651c-1.507,1.52-3.325,2.273-5.437,2.273c-2.118,0-3.931-0.754-5.442-2.273
		c-1.515-1.508-2.268-3.672-2.268-6.495v-29.164c0-0.454,0.023-0.909,0.077-1.364c-0.305-5.537-2.47-10.298-6.501-14.282
		c-4.385-4.378-9.672-6.574-15.867-6.574h-0.301c-6.195,0-11.488,2.195-15.866,6.574c-4.031,3.984-6.197,8.745-6.503,14.282
		c0.049,0.455,0.078,0.91,0.078,1.364v29.164c0,2.823-0.759,4.987-2.267,6.495c-1.513,1.52-3.325,2.273-5.442,2.273
		c-2.118,0-3.93-0.754-5.443-2.273c-1.508-1.508-2.266-3.721-2.266-6.651v-29.163c0.101-10.276,3.779-19.044,11.034-26.294
		c6.849-6.854,15.593-10.58,26.221-11.184H353.715z"/>
	<path fill="#F4B41A" d="M466.153,176.814c-6.447,4.845-13.899,7.262-22.362,7.262c-10.431,0-19.319-3.686-26.676-11.042
		c-7.356-7.345-11.035-16.244-11.035-26.664c0-10.431,3.679-19.319,11.035-26.676c7.356-7.356,16.245-11.035,26.676-11.035
		c10.426,0,19.312,3.678,26.669,11.035c7.358,7.357,11.036,16.222,11.036,26.593h0.071v30.073c0,0.406-0.023,0.813-0.071,1.221
		c-0.251,10.012-3.929,18.576-11.036,25.682c-7.357,7.356-16.243,11.029-26.669,11.029h-0.305c-2.118,0-3.93-0.753-5.443-2.261
		c-1.507-1.507-2.267-3.325-2.267-5.443c0-2.117,0.76-3.923,2.267-5.441c1.514-1.508,3.325-2.262,5.443-2.262
		c0.353,0,0.705,0.024,1.058,0.072c5.844-0.204,10.88-2.393,15.115-6.568C463.936,188.047,466.106,182.867,466.153,176.814z
		 M443.791,123.923c-6.196,0-11.489,2.184-15.868,6.538c-4.384,4.354-6.58,9.629-6.58,15.827c0,6.196,2.196,11.483,6.58,15.874
		c4.379,4.378,9.672,6.567,15.868,6.567c6.197,0,11.472-2.189,15.826-6.567c4.36-4.391,6.536-9.678,6.536-15.874
		c0-6.197-2.176-11.472-6.536-15.827C455.263,126.107,449.988,123.923,443.791,123.923z"/>
	<path fill="#F4B41A" d="M561.289,119.694c7.357,7.357,11.036,16.245,11.036,26.676c0,10.419-3.679,19.319-11.036,26.664
		c-7.356,7.356-16.244,11.042-26.669,11.042c-10.432,0-19.32-3.686-26.677-11.042c-7.356-7.345-11.034-16.244-11.034-26.664
		c0-10.431,3.678-19.319,11.034-26.676c7.356-7.356,16.245-11.035,26.677-11.035C545.045,108.66,553.933,112.338,561.289,119.694z
		 M534.62,123.923c-6.197,0-11.49,2.184-15.868,6.538c-4.385,4.354-6.579,9.629-6.579,15.827c0,6.196,2.194,11.483,6.579,15.874
		c4.378,4.378,9.671,6.567,15.868,6.567c6.196,0,11.472-2.189,15.826-6.567c4.36-4.391,6.537-9.678,6.537-15.874
		c0-6.197-2.177-11.472-6.537-15.827C546.092,126.107,540.816,123.923,534.62,123.923z"/>
</g>
</svg>
